<?xml version="1.0" encoding="UTF-8"?>
<svg width="188px" height="181px" viewBox="0 0 188 181" version="1.1" xmlns="http://www.w3.org/2000/svg" xmlns:xlink="http://www.w3.org/1999/xlink">
    <!-- Generator: Sketch 55.2 (78181) - https://sketchapp.com -->
    <title>logo2</title>
    <desc>Created with Sketch.</desc>
    <g id="Page-1" stroke="none" stroke-width="1" fill="none" fill-rule="evenodd">
        <path d="M107.675161,92.6567821 L107.675161,59.0712242 C100.434232,55.7690738 95.6751613,48.5262356 95.6751613,40.411073 C95.6751613,29.0892356 104.853324,19.911073 116.175161,19.911073 C127.496999,19.911073 136.675161,29.0892356 136.675161,40.411073 C136.675161,48.5262353 131.916091,55.7690736 124.675161,59.0712275 L124.675161,92.6567821 C132.490333,96.0224803 137.675161,103.736702 137.675161,112.411073 C137.675161,124.285195 128.049283,133.911073 116.175161,133.911073 C104.301039,133.911073 94.6751613,124.285195 94.6751613,112.411073 C94.6751613,103.736702 99.8599894,96.0224803 107.675161,92.6567821 Z M157.675245,111.692252 L157.675161,111.683113 L157.675161,40.411073 C157.675161,17.4912558 139.094978,-1.08892705 116.175161,-1.08892705 C93.5260969,-1.08892705 75.0695339,17.0718591 74.6814004,39.6844455 L74.6671099,40.5170103 L73.9389423,40.1131039 C54.1617987,29.1429461 29.2058108,36.0464066 17.881278,55.661073 C6.42136941,75.5102168 13.2221883,100.891219 33.0713322,112.351127 L94.8026025,147.991789 C98.1114701,149.98368 101.685165,151.505772 105.43178,152.507138 C110.290821,153.812406 115.331905,154.211477 120.319833,153.706731 C126.22136,153.121644 131.860909,151.28937 136.929063,148.356951 C142.001881,145.434478 146.408451,141.466622 149.866508,136.647468 C152.797002,132.580994 154.971937,128.015751 156.271226,123.154454 C157.277162,119.409717 157.745839,115.553761 157.675245,111.692252 Z" id="Combined-Shape" stroke="#EEEEEE" fill="#EEEEEE" transform="translate(84.998247, 76.414579) rotate(-330.000000) translate(-84.998247, -76.414579) "></path>
    </g>
</svg>